<svg
    xmlns="http://www.w3.org/2000/svg"
    viewBox="0 0 149 109"
    id="vector">
    <path
        id="path"
        d="M 73.7 30.89 L 62.24 30.89 L 62.24 11.59 C 62.24 11.325 62.345 11.07 62.533 10.883 C 62.72 10.695 62.975 10.59 63.24 10.59 L 72.75 10.59 C 73.015 10.59 73.27 10.695 73.457 10.883 C 73.645 11.07 73.75 11.325 73.75 11.59 Z"
        fill="#ffd301"/>
    <path
        id="path_1"
        d="M 73.66 11.58 C 73.66 11.315 73.555 11.06 73.367 10.873 C 73.18 10.685 72.925 10.58 72.66 10.58 L 66.99 10.58 C 67.237 10.605 67.467 10.721 67.633 10.906 C 67.8 11.091 67.891 11.331 67.89 11.58 L 67.89 30.89 L 73.64 30.89 Z"
        fill="#ffc20c"/>
    <path
        id="path_2"
        d="M 92.64 10.26 L 61.95 39.16 L 62.01 83.16 C 62.013 83.718 62.236 84.252 62.632 84.646 C 63.027 85.039 63.562 85.26 64.12 85.26 L 121.37 85.18 C 121.927 85.18 122.461 84.959 122.855 84.565 C 123.249 84.171 123.47 83.637 123.47 83.08 L 123.41 39.13 Z"
        fill="#e1effb"/>
    <path
        id="path_3"
        d="M 123.41 39.08 L 92.64 10.26 L 87.58 15.02 L 113.26 39.08 L 113.32 83.03 C 113.32 83.587 113.099 84.121 112.705 84.515 C 112.311 84.909 111.777 85.13 111.22 85.13 L 121.37 85.13 C 121.927 85.13 122.461 84.909 122.855 84.515 C 123.249 84.121 123.47 83.587 123.47 83.03 Z"
        fill="#ccdfed"/>
    <path
        id="path_4"
        d="M 134.23 48.76 C 133.157 48.763 132.122 48.355 131.34 47.62 L 92.64 11.37 L 54.04 47.73 C 53.394 48.354 52.566 48.755 51.676 48.876 C 50.786 48.997 49.881 48.83 49.092 48.401 C 48.304 47.972 47.672 47.302 47.29 46.49 C 46.908 45.677 46.795 44.764 46.968 43.883 C 47.14 43.002 47.59 42.198 48.25 41.59 L 89.74 2.51 C 90.521 1.773 91.556 1.361 92.63 1.361 C 93.704 1.361 94.739 1.773 95.52 2.51 L 137.11 41.51 C 137.727 42.088 138.157 42.839 138.342 43.664 C 138.528 44.49 138.461 45.352 138.151 46.139 C 137.84 46.926 137.3 47.601 136.601 48.077 C 135.902 48.554 135.076 48.809 134.23 48.81 Z"
        fill="#37b1ed"/>
    <path
        id="path_5"
        d="M 137.31 42.35 C 136.917 42.774 136.44 43.112 135.91 43.342 C 135.38 43.573 134.808 43.691 134.23 43.69 C 133.158 43.688 132.125 43.281 131.34 42.55 L 92.64 6.29 L 54.04 42.65 C 53.5 43.164 52.833 43.526 52.108 43.699 C 51.382 43.873 50.624 43.851 49.91 43.637 C 49.195 43.423 48.55 43.024 48.04 42.48 L 47.75 42.12 C 47.12 42.964 46.829 44.015 46.934 45.063 C 47.039 46.111 47.532 47.083 48.316 47.786 C 49.101 48.489 50.121 48.873 51.174 48.863 C 52.227 48.852 53.239 48.448 54.01 47.73 L 92.61 11.37 L 131.31 47.62 C 132.081 48.338 133.093 48.742 134.146 48.753 C 135.199 48.763 136.219 48.379 137.004 47.676 C 137.788 46.973 138.281 46.001 138.386 44.953 C 138.491 43.905 138.2 42.854 137.57 42.01 C 137.51 42.13 137.41 42.24 137.31 42.35 Z"
        fill="#1da1f2"/>
    <path
        id="path_6"
        d="M 100.58 46.49 L 84.8 46.49 C 84.445 46.49 84.104 46.631 83.852 46.882 C 83.601 47.134 83.46 47.475 83.46 47.83 L 83.52 85.16 L 101.97 85.16 L 101.97 47.82 C 101.97 47.58 101.905 47.344 101.782 47.137 C 101.659 46.931 101.482 46.762 101.27 46.648 C 101.059 46.534 100.82 46.479 100.58 46.49 Z"
        fill="#2d5871"/>
    <path
        id="path_7"
        d="M 101.92 47.83 C 101.92 47.595 101.858 47.365 101.74 47.162 C 101.622 46.959 101.453 46.791 101.249 46.675 C 101.045 46.559 100.815 46.498 100.58 46.5 L 91.67 46.5 C 91.941 46.588 92.178 46.759 92.346 46.989 C 92.515 47.218 92.607 47.495 92.61 47.78 L 92.66 85.17 L 101.97 85.17 Z"
        fill="#1d4859"/>
    <path
        id="path_8"
        d="M 140.83 66.31 L 117.58 81.83 L 110.65 81.45 L 110.38 78.72 C 110.185 76.75 109.335 74.902 107.967 73.472 C 106.599 72.042 104.789 71.111 102.83 70.83 L 84.26 68.69 C 79.977 68.082 75.854 66.645 72.12 64.46 L 72.12 64.46 C 67.023 61.48 61.224 59.91 55.32 59.91 L 41.91 59.91 L 41.91 90.47 L 77.29 103.86 C 78.627 104.247 80.033 104.343 81.41 104.14 L 81.41 104.14 L 117.03 99.01 C 119.774 98.571 122.355 97.415 124.51 95.66 L 147.51 74.95 C 148.508 74.064 149.15 72.843 149.314 71.518 C 149.478 70.193 149.152 68.853 148.4 67.75 L 148.4 67.75 C 147.579 66.567 146.324 65.752 144.909 65.483 C 143.494 65.214 142.028 65.511 140.83 66.31 Z"
        fill="#fed9a8"/>
    <path
        id="path_9"
        d="M 148.75 68.29 L 125.99 87.44 C 123.472 89.218 120.564 90.367 117.51 90.79 L 81.43 93.37 L 81.43 93.37 C 80.053 93.573 78.647 93.477 77.31 93.09 L 41.91 79.71 L 41.91 90.51 L 77.29 103.9 C 77.942 104.091 78.612 104.211 79.29 104.26 L 79.8 104.26 C 80.322 104.263 80.844 104.226 81.36 104.15 L 81.36 104.15 L 116.98 99.02 C 117.836 98.884 118.679 98.677 119.5 98.4 L 119.98 98.23 C 120.787 97.928 121.569 97.564 122.32 97.14 L 122.77 96.87 C 123.358 96.506 123.923 96.106 124.46 95.67 L 147.46 74.96 C 148.391 74.153 149.024 73.057 149.258 71.848 C 149.492 70.639 149.313 69.385 148.75 68.29 Z"
        fill="#f4c892"/>
    <path
        id="path_10"
        d="M 113.35 81.64 L 74.15 80.07 C 73.965 80.066 73.785 80.01 73.63 79.91 L 71.54 78.64 C 71.342 78.502 71.195 78.303 71.121 78.074 C 71.047 77.844 71.051 77.596 71.131 77.369 C 71.212 77.142 71.365 76.947 71.567 76.815 C 71.77 76.684 72.009 76.622 72.25 76.64 Z"
        fill="#f4c892"/>
    <path
        id="path_11"
        d="M 46.42 100.89 L 41.13 100.89 C 39.966 100.89 38.849 100.427 38.026 99.604 C 37.203 98.781 36.74 97.664 36.74 96.5 L 36.74 57.3 C 36.74 56.53 36.943 55.774 37.328 55.107 C 37.714 54.441 38.268 53.887 38.936 53.503 C 39.603 53.12 40.36 52.918 41.13 52.92 L 46.42 52.92 C 47.19 52.918 47.947 53.12 48.614 53.503 C 49.282 53.887 49.836 54.441 50.222 55.107 C 50.607 55.774 50.81 56.53 50.81 57.3 L 50.81 96.5 C 50.81 97.664 50.347 98.781 49.524 99.604 C 48.701 100.427 47.584 100.89 46.42 100.89 Z"
        fill="#ffd301"/>
    <path
        id="path_12"
        d="M 46.42 52.92 L 41.13 52.92 C 40.838 52.921 40.547 52.948 40.26 53 C 41.251 53.204 42.142 53.743 42.782 54.526 C 43.423 55.309 43.776 56.288 43.78 57.3 L 43.78 96.5 C 43.776 97.512 43.423 98.491 42.782 99.274 C 42.142 100.057 41.251 100.596 40.26 100.8 C 40.547 100.856 40.838 100.886 41.13 100.89 L 46.42 100.89 C 47.584 100.89 48.701 100.427 49.524 99.604 C 50.347 98.781 50.81 97.664 50.81 96.5 L 50.81 57.3 C 50.81 56.53 50.607 55.774 50.222 55.107 C 49.836 54.441 49.282 53.887 48.614 53.503 C 47.947 53.12 47.19 52.918 46.42 52.92 Z"
        fill="#ffc20c"/>
    <path
        id="path_13"
        d="M 24.44 84.35 C 24.003 84.024 23.648 83.6 23.405 83.112 C 23.162 82.624 23.037 82.085 23.04 81.54 L 23.04 29.14 C 23.034 28.545 23.178 27.958 23.459 27.433 C 23.741 26.909 24.15 26.464 24.65 26.14 C 27.48 24.301 29.654 21.609 30.855 18.455 C 32.057 15.301 32.224 11.845 31.333 8.589 C 30.443 5.333 28.539 2.444 25.9 0.34 C 25.54 0.064 25.087 -0.063 24.636 -0.017 C 24.185 0.029 23.768 0.247 23.472 0.59 C 23.175 0.933 23.021 1.377 23.04 1.83 L 23.04 12.28 L 15.95 16.37 L 8.83 12.28 L 8.83 1.83 C 8.831 1.385 8.666 0.955 8.366 0.626 C 8.066 0.297 7.653 0.092 7.21 0.052 C 6.766 0.012 6.324 0.14 5.97 0.41 C 3.327 2.505 1.422 5.39 0.532 8.643 C -0.358 11.896 -0.186 15.349 1.022 18.497 C 2.23 21.646 4.413 24.328 7.25 26.15 C 7.729 26.471 8.124 26.903 8.399 27.41 C 8.674 27.917 8.822 28.483 8.83 29.06 L 8.83 81.54 C 8.831 82.085 8.705 82.623 8.462 83.11 C 8.219 83.598 7.865 84.022 7.43 84.35 C 4.701 86.394 2.798 89.356 2.074 92.688 C 1.349 96.02 1.851 99.504 3.485 102.497 C 5.12 105.49 7.78 107.795 10.975 108.986 C 14.17 110.178 17.69 110.178 20.885 108.986 C 24.08 107.795 26.74 105.49 28.375 102.497 C 30.009 99.504 30.511 96.02 29.786 92.688 C 29.062 89.356 27.159 86.394 24.43 84.35 Z M 22.15 99.27 L 15.95 102.83 L 9.75 99.25 L 9.75 92.09 L 15.95 88.51 L 22.15 92.09 Z"
        fill="#a0d9f2"/>
    <path
        id="path_14"
        d="M 15.95 83.29 L 15.95 83.29 C 15.245 83.29 14.568 83.01 14.069 82.511 C 13.57 82.012 13.29 81.335 13.29 80.63 L 13.29 29.24 C 13.29 28.535 13.57 27.858 14.069 27.359 C 14.568 26.86 15.245 26.58 15.95 26.58 L 15.95 26.58 C 16.655 26.58 17.332 26.86 17.831 27.359 C 18.33 27.858 18.61 28.535 18.61 29.24 L 18.61 80.63 C 18.61 81.097 18.487 81.556 18.254 81.96 C 18.02 82.364 17.684 82.7 17.28 82.934 C 16.876 83.167 16.417 83.29 15.95 83.29 Z"
        fill="#e1effb"/>
</svg>
