<svg width="1696" height="471" viewBox="0 0 1696 471" fill="none" xmlns="http://www.w3.org/2000/svg">
<g filter="url(#filter0_d)">
<path d="M1557.39 412.165C1498.12 401.8 1528.43 407.592 1455.68 399.849C1287.62 381.863 1087.37 371.438 872.413 371.438C657.461 371.438 457.205 381.863 289.145 399.849C288.841 399.91 288.597 399.91 288.292 399.971L287.316 400.093C206.945 408.751 134.014 419.116 70.3515 430.883V423.627C73.8883 423.018 77.1812 423.627 80.1692 424.603C81.7547 425.091 83.2182 425.7 84.6207 426.249C85.1695 426.493 86.1452 425.822 86.4501 425.152C86.9379 424.115 87.4257 423.14 88.0355 422.286C90.0478 419.238 92.7309 416.982 96.3897 415.884C96.8775 415.701 97.5483 415.092 97.6093 414.604C97.9142 407.349 98.0971 400.032 100.536 392.167C103.524 382.412 111.086 373.816 119.684 366.56C133.892 354.427 156.393 348.757 156.698 366.682C156.515 366.804 156.332 366.865 156.149 366.987C155.052 367.597 155.357 369.487 156.576 368.877C169.26 362.048 181.029 360.707 191.761 363.756C192.127 363.878 192.615 363.695 192.859 363.207C198.652 352.781 207.616 348.33 217.434 347.05C218.287 346.928 218.653 346.014 218.531 345.343C216.397 329.674 228.044 313.456 244.204 304.981C257.497 297.909 273.84 298.397 273.23 314.432C273.23 314.858 273.535 315.529 274.084 315.285C279.267 313.151 283.84 312.907 287.194 316.2C287.621 316.565 288.353 316.261 288.597 315.59C293.353 302.299 304.939 284.313 317.684 287.3C319.147 287.666 320.672 288.276 322.135 289.19C322.44 289.373 322.989 289.129 323.233 288.702C324.513 286.386 325.672 283.886 326.892 281.325C332.136 270.229 337.38 258.096 348.112 251.572C365.735 240.659 397.14 251.389 381.773 275.777C381.529 276.143 381.529 276.631 381.59 276.996C380.614 277.606 379.7 278.216 378.785 278.947C377.443 279.984 378.785 281.203 379.883 280.35C388.542 273.704 399.03 271.692 407.018 275.838C407.689 276.143 408.909 275.777 409.031 274.802C411.592 252.853 440.496 244.134 454.826 251.328C455.436 251.633 456.717 251.389 456.839 250.292C457.57 241.39 460.558 232.123 468.303 226.087C474.279 221.453 481.535 220.417 487.816 221.332C502.024 223.343 509.586 237.366 499.89 252.426C499.097 253.645 500.683 253.889 501.476 253.523C508.305 250.17 514.708 250.536 519.403 255.596C519.891 256.084 521.294 256.145 521.538 255.108C525.501 237.244 541.356 218.954 558.613 225.355C559.162 225.538 560.199 225.355 560.382 224.563C567.455 195.481 590.627 174.69 617.641 170.605C640.143 167.13 670.205 180.787 660.997 210.479C660.936 210.479 660.876 210.54 660.815 210.601C659.717 211.333 660.754 213.588 661.79 212.796C678.438 201.09 693.682 208.162 708.378 216.942C708.744 217.186 709.354 217.003 709.476 216.515C712.098 209.199 718.074 207.918 724.355 209.016C724.965 209.138 725.331 208.528 725.331 207.918C726.123 194.322 727.526 180.116 735.331 168.471C742.283 158.167 754.113 151.4 765.394 149.571C783.2 146.522 815.641 153.29 807.409 179.69C806.86 179.507 806.372 179.324 806.006 179.202C804.848 178.897 804.055 181.336 805.336 181.641C813.873 183.957 830.215 194.871 832.288 179.019C833.63 168.776 832.593 160.24 841.435 153.534C849.79 147.193 862.412 144.083 871.62 149.693C872.23 150.058 872.962 149.388 873.145 148.778C875.523 138.657 877.718 128.231 882.718 119.208C888.694 108.538 899.305 103.844 910.159 101.405C926.563 97.6249 954.003 100.308 954.491 124.451C954.491 125.122 954.979 125.854 955.65 125.549C964.004 121.708 980.651 130.061 976.627 141.767C976.139 143.169 977.785 143.657 978.395 142.559C1005.53 92.6864 1095.48 151.888 1066.45 202.126C1066.14 202.675 1066.27 204.077 1067.18 203.894C1076.88 202.126 1094.74 209.077 1092.91 222.673C1092.79 223.526 1093.71 224.197 1094.32 223.709C1095.05 223.1 1095.78 222.551 1096.51 222.002C1097.61 221.21 1098.71 220.417 1099.87 219.685C1101.63 218.588 1103.46 217.551 1105.29 216.698C1106.09 216.332 1106.82 216.027 1107.61 215.661C1110.96 214.259 1114.44 213.284 1117.98 212.674C1118.46 212.552 1119.01 212.491 1119.5 212.43C1121.33 212.186 1123.1 212.003 1124.93 211.942C1134.93 211.637 1145.36 214.137 1155.97 219.015C1159.44 220.6 1163.41 222.673 1167.37 225.112C1169.93 226.697 1172.43 228.404 1174.93 230.233C1175.72 230.843 1176.52 231.452 1177.31 232.062C1186.64 239.683 1194.14 249.499 1193.77 260.779C1193.59 261.083 1193.65 261.449 1193.84 261.754C1194.02 262.364 1194.63 262.547 1195.12 262.303C1197.01 262.181 1198.77 262.303 1200.42 262.669C1201.03 262.791 1201.58 262.973 1202.13 263.156C1205.36 264.254 1208.29 266.327 1210.91 269.802C1211.15 270.107 1211.7 270.29 1212.01 270.229H1212.07C1212.49 270.168 1212.98 270.107 1213.41 270.107C1217.25 269.924 1220.85 271.387 1224.39 274.009C1225 274.436 1226.15 274.314 1226.22 273.46C1226.28 271.692 1226.46 270.046 1226.7 268.4C1227.37 263.888 1228.72 259.803 1230.61 256.206C1246.83 224.807 1302.93 224.868 1325.61 261.571C1326.47 262.973 1327.32 264.498 1328.11 266.022C1328.54 266.876 1329.88 266.997 1330.25 266.327C1331.1 264.376 1332.2 262.852 1333.54 261.632C1338.72 256.755 1346.95 257.303 1355.06 261.571C1355.67 261.876 1356.53 261.754 1356.59 261.083C1363.85 213.893 1450.99 261.693 1434.4 297.299C1434.03 298.153 1435.25 298.884 1435.92 298.762C1438.12 298.519 1440.31 298.762 1442.45 299.311C1445.92 300.226 1449.28 302.177 1452.2 304.798C1455.31 307.542 1458.06 311.078 1460.13 315.102C1460.56 315.895 1461.6 316.078 1462.08 315.712C1470.44 308.335 1481.72 304.859 1494.59 315.773C1495.07 316.2 1495.8 316.261 1496.17 315.956C1502.7 310.773 1506.23 302.725 1513.79 298.945C1520.62 295.531 1528.92 294.617 1537.39 294.799C1555.08 295.104 1575.63 299.738 1593.31 310.59C1608.37 319.797 1621.91 349.672 1610.75 373.267C1598.8 397.959 1557.39 412.165 1557.39 412.165Z" fill="white"/>
</g>
<path d="M1054.31 371.194V300.347C1043.22 297.421 1032.36 293.58 1022.06 289.617C1005.65 283.337 989.615 276.265 972.846 270.777C965.955 268.521 957.723 265.595 950.162 266.753C945.344 267.485 940.954 269.497 936.075 270.107C928.27 271.021 921.135 269.985 914.062 266.875C906.195 263.4 898.939 258.766 891.743 254.377C877.779 245.902 864.181 236.452 848.448 230.355C840.338 227.245 831.74 224.989 822.837 224.441C813.446 223.892 804.299 225.416 794.969 226.026C781.066 226.879 766.98 225.782 754.052 221.209C741.307 216.698 728.685 209.625 718.623 201.577C710.879 195.358 703.683 188.591 696.244 182.067C688.316 175.178 680.328 167.8 671.12 162.069C667.705 159.996 664.9 158.777 660.693 160.179C655.387 161.886 650.814 165.24 646.789 168.532C637.459 176.214 629.593 184.994 621.239 193.407C612.031 202.736 600.872 210.357 589.652 217.856C582.212 222.855 574.712 227.855 567.943 233.525C561.601 238.829 556.479 244.743 551.479 250.962C547.881 255.474 544.344 260.047 539.953 264.01C535.258 268.278 529.831 271.692 523.794 274.557C516.415 278.033 508.854 281.325 501.354 284.617C495.073 287.361 488.67 289.983 481.962 291.934C473.852 294.311 465.498 295.653 457.022 296.384V371.133H1054.31V371.194Z" fill="#A1D6F6"/>
<path d="M489.36 288.783C500.156 287.5 510.032 283.895 519.172 278.947C523.405 276.625 527.392 273.937 531.747 271.737C535.489 269.843 539.415 268.255 543.28 266.544C547.512 264.65 551.745 262.451 554.935 259.335C556.836 257.502 558.554 255.425 559.658 253.164C560.455 251.453 561.314 249.743 562.296 248.154C563.707 245.955 565.485 244.366 567.939 242.961C569.718 241.923 571.497 240.945 573.337 240.029C575.239 239.112 577.57 238.196 579.103 236.791C581.189 234.897 580.698 232.636 581.68 230.437C582.416 228.726 584.134 227.382 585.728 226.221C587.937 224.632 590.329 223.227 592.537 221.578C594.807 219.806 596.218 217.729 598.12 215.713C601.187 212.352 605.971 210.703 610.327 208.809C615.173 206.67 619.528 204.227 622.718 200.378C622.902 200.133 623.27 200.316 623.454 200.439C625.294 202.455 625.908 204.776 624.19 206.976C622.473 209.298 619.405 210.825 617.749 213.208C613.271 219.623 610.02 226.893 603.518 232.086C598.058 236.485 592.169 240.517 587.078 245.283C582.232 249.743 577.141 254.936 575.484 260.984C579.472 259.946 582.416 257.624 585.176 254.936C587.998 252.248 590.759 249.743 594.5 247.971C597.015 246.81 599.653 245.833 602.291 244.855C604.622 244 606.769 242.961 609.1 242.167C612.412 241.067 615.725 240.64 619.283 240.64C623.945 240.578 629.22 241.128 633.637 239.662C638.36 238.074 642.716 235.141 645.476 231.475C648.604 227.321 648.604 223.227 647.439 218.523C646.58 215.163 645.231 211.864 645.844 208.381C646.212 206.121 647.194 204.043 648.052 201.905C648.788 200.011 649.463 198.056 650.138 196.101C651.487 192.374 652.96 188.281 656.211 185.409C656.395 185.287 656.702 185.287 656.886 185.409C661.057 189.686 658.051 195.429 658.297 200.378C658.481 203.616 660.505 205.998 662.038 208.87C662.406 209.542 662.774 210.214 662.959 210.886C663.204 211.68 663.204 211.802 664.247 211.436C665.29 211.008 666.026 210.275 666.516 209.359C667.191 208.076 667.498 205.204 669.645 204.96C672.16 204.654 674.43 206.304 675.656 208.014C679.766 213.696 680.625 223.105 689.458 225.121C691.115 225.488 692.832 225.671 694.55 225.366C696.206 225.06 696.267 224.083 696.574 222.983C696.942 221.822 697.249 220.845 698.782 220.539C699.396 220.417 700.009 220.356 700.684 220.417C701.911 220.539 703.076 220.356 704.242 220.356C706.818 220.356 709.333 220.661 711.91 220.783C713.934 220.845 715.406 220.295 717.308 219.867C718.473 219.623 719.516 219.562 720.682 219.378C723.135 219.012 725.712 218.951 728.166 219.317C733.625 220.111 738.655 222.189 743.317 224.694C748.286 227.382 752.764 230.559 757.671 233.308C759.143 234.163 760.8 235.202 762.579 235.508C764.051 235.691 765.4 235.446 766.811 235.08C769.204 234.469 771.657 233.797 774.05 233.125C775.706 232.636 777.423 232.208 779.202 232.392C784.539 232.88 789.569 233.919 795.029 233.614C800.918 233.308 806.377 231.597 812.082 230.375C818.277 229.031 824.596 228.115 830.914 227.748C834.717 227.565 838.52 227.504 842.324 227.687C834.963 225.06 827.233 223.166 819.198 222.677C809.996 222.128 801.102 223.655 791.962 224.205C778.405 225.06 764.603 223.96 751.966 219.5C739.514 215.102 727.184 208.259 717.369 200.378C709.763 194.329 702.77 187.731 695.531 181.438C687.802 174.717 680.012 167.569 670.994 162.009C667.682 159.993 664.921 158.833 660.812 160.116C655.597 161.765 651.181 165.003 647.255 168.241C638.115 175.695 630.447 184.248 622.289 192.435C613.271 201.477 602.414 208.87 591.495 216.201C584.256 221.089 576.895 225.916 570.331 231.414C564.136 236.607 559.167 242.289 554.26 248.399C550.763 252.798 547.267 257.258 543.034 261.107C538.433 265.261 533.158 268.56 527.269 271.371C520.092 274.792 512.67 277.969 505.309 281.146C499.174 283.773 492.917 286.339 486.415 288.233C484.698 288.722 483.041 289.149 481.324 289.577C483.839 289.394 486.599 289.088 489.36 288.783Z" fill="#CFF9FF"/>
<path d="M1633.31 415.641C1632.95 418.262 1632.58 420.823 1632.22 423.445C1578.68 414.604 1519.53 406.678 1455.74 399.85C1287.68 381.864 1087.43 371.438 872.474 371.438C657.522 371.438 457.205 381.864 289.145 399.85C288.841 399.911 288.597 399.911 288.292 399.972L287.316 400.094C235.423 405.703 186.578 411.983 141.331 418.933C140.844 415.519 108.22 425.03 107.061 416.921C107.061 416.921 107.061 416.921 107.122 416.921C107.488 416.86 107.915 416.738 108.342 416.616C118.403 413.934 128.953 411.312 139.868 408.751C182.736 398.691 232.252 389.546 287.316 381.498C287.56 381.437 287.804 381.437 288.048 381.376L287.316 335.1C288.962 335.039 290.609 334.857 292.194 334.979C292.926 335.039 293.658 335.649 294.329 336.137C294.816 336.503 295.121 337.051 295.548 337.478C295.853 336.869 296.402 336.198 296.463 335.588C296.524 333.637 296.524 331.747 296.585 329.796C301.097 327.906 305.61 326.077 310.122 324.126C312.196 323.272 314.33 322.358 316.403 321.443C320.306 319.797 324.209 318.09 328.111 316.383C350.125 306.689 371.65 296.263 391.652 284.008C408.848 273.522 424.398 266.205 446.472 268.339C452.387 268.888 458.119 269.985 463.729 271.388C471.413 273.339 478.913 275.838 486.292 278.521C494.341 281.448 502.268 284.496 510.317 287.179C520.318 290.471 530.624 292.483 541.051 293.641C546.6 294.251 552.21 294.617 557.82 294.861C588.493 295.897 620.263 291.446 650.936 290.776C659.229 290.593 667.644 290.776 676.059 291.142C679.291 291.264 682.523 291.446 685.755 291.629C696.609 292.178 707.464 292.91 718.379 293.337C720.94 293.458 723.501 293.519 726.062 293.58C733.746 293.763 741.429 293.763 749.052 293.397C752.04 293.215 755.089 293.032 758.077 292.788C762.04 292.422 765.943 291.995 769.907 291.386C772.285 291.02 774.663 290.593 776.98 290.105C779.114 289.678 781.249 289.191 783.383 288.703C827.288 277.911 864.973 255.84 908.452 243.951C910.647 243.342 912.842 242.793 915.098 242.366C916.867 242 918.635 241.696 920.343 241.391C934.368 239.196 948.759 239.745 962.662 243.159C978.273 247 992.176 254.377 1005.47 261.572C1018.09 268.461 1030.47 275.534 1043.89 281.387C1044.25 281.569 1044.62 281.691 1044.98 281.874C1045.72 282.179 1046.39 282.484 1047.12 282.789C1047.97 283.155 1048.77 283.46 1049.62 283.825C1050.05 284.008 1050.41 284.13 1050.84 284.313C1055.72 286.142 1060.66 287.666 1065.66 289.008C1066.08 289.13 1066.57 289.252 1067 289.374C1068.4 289.739 1069.8 290.044 1071.21 290.349C1080.17 292.3 1089.38 293.58 1098.89 294.495C1143.59 298.885 1188.59 298.763 1232.25 308.274C1234.51 308.762 1236.7 309.25 1238.9 309.798C1239.51 309.92 1240.06 310.103 1240.67 310.225C1242.98 310.774 1245.3 311.383 1247.62 312.054C1247.74 312.115 1247.92 312.115 1248.05 312.176C1253.35 313.639 1258.23 315.407 1262.74 317.48C1267.74 319.736 1272.32 322.297 1276.58 325.101C1282.86 329.247 1288.6 334.003 1294.09 339.124C1294.76 339.734 1295.49 340.405 1296.16 341.075C1297.01 341.929 1297.93 342.783 1298.78 343.636C1309.51 354.306 1320.92 365.402 1336.83 371.377C1359.21 379.852 1381.9 376.255 1405.19 380.462C1426.53 384.364 1444.83 395.765 1466.11 400.094C1484.77 403.935 1499.95 398.204 1514.4 390.582C1558.67 398.021 1598.62 406.495 1633.31 415.641Z" fill="#53BB5D"/>
<path d="M1654.41 421.494C1647.64 419.543 1640.57 417.592 1633.31 415.702C1598.62 406.556 1558.67 398.081 1514.28 390.399C1496.11 387.229 1477.21 384.241 1457.57 381.376C1457.57 369.243 1457.57 357.171 1457.51 345.16C1457.51 344.063 1456.35 342.965 1455.8 341.868C1455.25 340.709 1454.28 339.551 1454.22 338.332C1454.09 329.918 1454.16 321.504 1454.16 313.09C1454.16 312.176 1454.09 311.261 1453.85 310.408C1453.3 308.518 1452.45 306.689 1451.96 304.859C1451.78 304.189 1451.66 303.457 1451.59 302.787C1450.98 294.982 1450.74 287.178 1450.5 279.374C1450.38 275.228 1450.56 271.083 1450.44 266.937C1450.44 265.961 1449.77 264.986 1449.34 264.01C1448.79 262.852 1448.12 261.693 1447.69 260.535C1447.33 259.62 1447.27 258.584 1447.08 257.608C1446.78 257.669 1446.47 257.669 1446.23 257.73C1446.11 258.889 1446.11 260.047 1445.86 261.206C1445.68 262.059 1445.44 263.217 1444.89 263.522C1443.06 264.437 1443 265.839 1442.94 267.546C1442.75 278.216 1442.51 288.825 1442.2 299.433C1442.14 300.47 1442.14 301.567 1442.14 302.604C1442.14 303.213 1442.08 303.823 1441.96 304.372C1440.98 308.091 1439.28 311.688 1439.7 315.712C1439.83 316.688 1439.64 317.663 1439.58 318.699H1433.85C1435.37 317.724 1436.35 317.114 1437.45 316.383C1427.63 311.932 1417.45 311.322 1407.2 311.993C1406.1 304.616 1407.08 298.092 1411.23 292.056C1413.06 291.385 1415.31 290.532 1417.57 289.739C1417.51 289.434 1417.45 289.129 1417.45 288.825C1412.2 287.361 1406.96 285.898 1401.04 284.252C1402.45 283.276 1403.18 282.789 1404.15 282.118C1403.06 281.813 1402.26 281.508 1401.47 281.325C1396.29 280.167 1391.29 278.887 1391.29 271.936C1390.92 272.851 1390.62 273.765 1390.62 274.68C1390.68 278.155 1388.91 279.74 1385.62 280.289C1383.18 280.655 1380.8 281.447 1378.66 281.996C1379.46 282.85 1380.19 283.642 1380.98 284.435C1380 284.862 1379.09 285.349 1378.11 285.593C1373.79 286.691 1369.39 287.727 1365 288.764C1365 289.129 1364.94 289.495 1364.94 289.861C1367.38 290.593 1369.76 291.324 1372.2 292.117C1372.44 293.153 1372.44 294.922 1372.99 295.104C1376.47 296.263 1375.25 299.799 1376.41 301.994C1377.69 304.433 1376.71 308.03 1376.71 311.627C1365.86 310.773 1355.67 311.81 1345.49 315.773C1347.08 316.931 1348.36 317.907 1349.27 318.578C1341.22 320.224 1333.17 321.87 1325.12 323.516C1325.12 323.821 1325.18 324.126 1325.18 324.431C1326.16 324.796 1327.26 325.101 1328.17 325.65C1328.78 326.016 1329.57 326.747 1329.57 327.296C1329.7 331.808 1329.64 336.381 1329.64 340.831C1323.96 341.807 1323.9 341.746 1323.66 336.746C1323.23 326.93 1322.75 317.114 1322.5 307.298C1322.38 302.177 1322.68 296.994 1323.11 291.873C1323.17 290.898 1324.39 289.678 1325.37 289.19C1329.21 287.178 1333.17 285.349 1337.14 283.642C1340.25 282.301 1340.98 280.228 1340.37 276.875C1339.64 272.668 1339.15 268.339 1342.01 264.315C1343.11 262.852 1343.11 260.596 1343.6 258.645C1340.98 261.327 1337.99 261.632 1334.76 261.571C1334.27 261.571 1333.78 261.571 1333.36 261.571C1330.73 261.51 1328.11 261.51 1325.49 261.571C1322.38 261.571 1319.27 261.571 1316.22 261.571H1305.37C1304.51 257.791 1304.45 257.913 1300.79 256.511C1299.63 256.084 1298.23 254.743 1297.93 253.584C1296.95 249.987 1296.46 246.207 1295.55 241.634C1293.6 247.183 1291.95 251.938 1290.12 257.06C1286.28 252.792 1286.83 247.366 1285.43 242.671C1283.41 247.244 1281.46 251.755 1279.27 256.755C1275.73 252.426 1276.1 247.122 1273.9 242.244C1273.54 243.89 1273.41 244.988 1272.99 245.963C1271.52 249.134 1270.12 252.365 1268.41 255.413C1267.38 257.243 1265.79 258.767 1263.96 261.084C1257.68 261.084 1250.24 260.291 1243.11 261.327C1237.31 262.181 1234.57 257.852 1230.48 256.084C1230.18 255.962 1229.93 255.84 1229.63 255.718C1228.84 255.474 1228.23 254.865 1227.5 254.438C1227.07 255.292 1226.28 256.145 1226.28 256.999C1226.28 259.011 1226.64 261.023 1226.89 263.339C1226.4 262.974 1226.09 262.852 1225.91 262.608C1203.9 234.867 1181.88 207.126 1159.93 179.385C1159.14 178.348 1158.59 177.129 1158.04 175.91C1157.74 175.239 1157.8 174.385 1157.67 173.654C1158.47 173.593 1159.38 173.715 1160.11 173.471C1161.82 172.983 1163.83 172.678 1165.05 171.642C1166.88 170.057 1164.81 168.715 1164.08 167.252C1162.98 165.057 1162 162.74 1161.58 160.362C1161.15 157.924 1161.7 155.302 1161.39 152.802C1161.21 151.461 1160.54 149.51 1159.5 149.022C1156.15 147.498 1155.42 144.632 1154.5 141.645C1153.47 138.231 1152.31 134.938 1151.21 131.524C1150.97 130.792 1150.6 129.573 1150.91 129.268C1154.14 126.098 1150.48 126.707 1149.32 126.22C1148.77 124.208 1148.22 122.379 1147.67 120.306C1147.37 120.976 1147.12 121.403 1146.94 121.891C1146.33 123.293 1146.03 125.671 1145.17 125.854C1142.43 126.464 1142.67 127.622 1143.71 129.512C1143.89 129.817 1143.53 130.488 1143.34 130.914C1141.39 135.792 1139.5 140.73 1137.49 145.608C1137.25 146.218 1136.76 147.071 1136.27 147.254C1132 148.291 1131.94 151.644 1131.64 155.119C1131.15 160.058 1131.33 165.24 1126.64 168.837C1124.99 170.118 1125.96 172.556 1128.22 173.227C1129.75 173.715 1131.33 173.837 1133.34 174.202C1132.49 175.422 1131.76 176.397 1131.09 177.312C1119.87 192.493 1108.34 207.37 1096.39 221.88C1087.49 232.733 1078.4 243.403 1069.01 253.889C1060.78 263.157 1052.36 272.241 1043.7 281.081C1029.13 296.019 1013.82 310.225 997.421 323.211C993.762 326.138 989.92 328.881 986.2 331.747C985.956 331.564 985.713 331.381 985.53 331.198C985.956 330.101 986.322 328.942 986.688 327.967C985.469 323.699 982.542 322.48 978.395 323.028C976.261 323.333 974.004 323.089 971.87 323.089C971.748 318.273 971.687 318.273 976.017 317.602C979.737 317.053 983.456 316.566 987.176 316.078C986.078 315.041 984.981 314.493 983.883 314.066C972.358 309.249 960.894 304.433 949.308 299.677C947.539 298.945 946.991 298.092 947.113 296.08C947.235 293.702 948.637 293.336 950.406 292.97C955.406 291.995 960.406 290.958 966.26 289.8C954.735 284.435 944.125 279.435 933.758 274.619C934.612 272.302 935.344 270.229 936.075 268.034C939.551 267.546 943.21 266.998 947.539 266.388C946.259 265.595 945.527 265.108 944.795 264.681C939.368 261.693 934.002 258.645 928.514 255.779C926.685 254.804 925.831 253.584 925.587 251.572C925.343 249.56 924.855 247.548 924.428 245.293C923.331 246.268 922.66 246.939 921.684 247.853C921.196 245.536 920.709 243.281 920.221 241.086C919.55 237.793 918.818 234.562 918.147 231.331H917.599C916.745 234.867 915.83 238.403 914.977 242C914.428 244.134 913.94 246.329 913.391 248.585C912.598 247.305 912.049 246.512 911.318 245.293C910.647 247.609 909.976 249.378 909.671 251.207C909.244 253.767 907.842 254.865 905.342 255.535C899.305 257.121 893.39 259.011 886.743 260.962C889.304 262.364 891.317 263.522 893.329 264.62C899.549 268.095 899.549 268.095 902.903 273.216C890.829 277.24 878.816 281.203 866.193 285.41C867.535 285.837 868.205 286.081 868.876 286.264C874.852 287.788 880.889 289.251 886.804 290.958C887.78 291.263 888.511 292.422 889.304 293.214C888.45 294.007 887.719 295.165 886.743 295.47C871.986 299.982 857.229 304.372 842.472 308.762C841.496 309.066 840.582 309.432 838.813 310.042C841.496 310.956 843.204 311.444 844.911 312.115C847.228 313.029 849.729 313.761 851.863 315.041C856.497 317.785 858.936 322.967 863.449 325.894C863.693 326.077 863.876 326.565 863.876 326.93C863.937 330.04 863.876 333.149 863.876 336.381C860.949 336.624 858.388 336.624 855.948 337.112C845.033 339.429 834.728 335.466 824.178 333.942C821.312 333.515 818.385 332.966 815.824 331.808C813.751 330.893 812.348 330.406 810.336 331.869C807.836 333.698 806.555 333.027 806.738 329.918C806.86 327.357 805.641 326.321 803.445 326.382C800.701 326.443 797.957 326.808 795.274 327.052C795.152 328.82 795.091 329.979 795.03 331.198C792.103 331.503 791.92 329.491 791.798 327.662C791.676 325.345 791.737 323.028 791.737 320.711C791.615 314.919 791.615 314.919 786.005 314.676C785.822 314.676 785.639 314.493 785.517 314.432C785.273 312.968 785.03 311.566 784.786 310.164C783.871 310.591 783.81 310.956 783.566 311.261C782.895 311.993 782.163 312.664 781.493 313.395C780.883 312.664 779.907 312.054 779.663 311.2C779.297 309.859 779.602 308.396 779.419 306.993C778.627 301.262 777.895 295.531 776.858 289.861C776.797 289.617 776.797 289.373 776.736 289.19C776.309 286.995 774.846 285.044 773.626 282.545C772.163 285.349 770.76 287.361 770.151 289.556C770.029 290.044 769.907 290.593 769.785 291.141C768.87 295.348 768.626 299.738 765.516 303.091C764.662 304.006 762.955 305.042 761.918 304.799C760.272 304.433 757.528 304.738 757.894 301.506C758.138 299.25 758.442 296.933 758.199 294.739C758.138 294.007 758.077 293.336 757.955 292.605C757.589 289.8 757.04 286.996 756.552 284.191C755.881 280.167 753.32 276.265 756.308 272.18C755.272 271.448 754.479 270.839 753.747 270.29C751.064 271.204 750.759 272.729 751.857 275.167C752.406 276.387 752.162 278.094 751.857 279.496C750.942 284.069 749.844 288.581 748.869 293.153C748.808 293.458 748.747 293.763 748.686 294.068C748.564 294.739 748.747 295.47 748.808 296.141C748.991 298.58 749.174 301.079 749.357 303.396C747.527 304.006 746.125 304.92 744.844 304.859C740.758 304.677 738.624 307.237 736.612 310.103C735.819 311.261 734.844 312.359 734.295 313.639C733.563 315.407 732.526 316.627 730.758 315.773C729.66 315.224 728.563 313.7 728.441 312.481C727.831 307.603 727.953 302.604 727.038 297.787C726.733 296.324 726.367 294.861 725.941 293.397C725.087 290.471 723.928 287.544 723.074 284.618C722.709 284.679 722.343 284.801 721.977 284.862C720.208 287.544 719.05 290.288 718.257 293.214C716.001 301.14 716.367 309.737 714.781 318.09C713.806 317.48 712.952 316.688 712.83 315.834C712.647 313.639 712.769 311.444 712.769 308.701H705.756C705.512 311.749 705.329 314.371 705.086 317.053C703.683 317.114 702.585 317.175 701.366 317.236C701 318.639 700.634 321.199 698.561 319.431C696.122 317.358 694.292 314.554 692.402 311.871C691.914 311.139 692.219 309.798 692.219 308.762C692.28 306.75 692.707 304.616 692.402 302.665C692.158 300.653 691.304 298.824 689.17 297.787C688.133 297.299 687.28 295.897 686.853 294.678C686.426 293.58 685.999 292.483 685.633 291.385C684.84 289.19 684.109 286.935 683.377 284.74C682.584 282.423 681.913 280.045 681.182 277.667C680.877 277.667 680.511 277.728 680.206 277.728C679.108 281.386 678.255 285.227 676.791 288.764C676.486 289.495 676.181 290.227 675.876 290.958C674.718 293.519 673.376 296.019 671.608 298.153C670.571 299.433 669.535 300.348 669.352 301.994C669.169 303.762 668.071 305.896 668.742 307.115C670.937 311.078 668.071 312.298 665.876 314.127C660.876 310.042 659.046 310.591 655.021 317.541C652.521 316.505 650.265 316.444 648.07 318.821C645.631 321.443 642.582 323.455 639.777 325.772C639.716 325.833 639.594 325.833 639.472 325.833C637.338 325.772 635.203 325.772 633.069 325.528C632.52 325.467 631.849 324.796 631.605 324.248C630.325 321.687 631.24 318.334 633.252 316.87C628.617 313.883 621.483 315.041 618.983 308.335C617.519 309.92 616.361 312.176 614.714 312.785C610.507 314.249 606.055 315.407 601.604 315.895C597.274 316.383 592.884 316.078 588.554 315.956C587.151 315.895 585.688 315.529 583.92 315.285C582.395 316.748 582.334 321.016 578.37 319.919C575.565 319.126 572.943 317.724 570.26 316.627C570.26 316.261 570.199 315.834 570.199 315.468C575.383 314.249 576.724 307.542 582.7 307.481C574.407 303.213 566.053 298.884 557.82 294.617C557.82 294.617 557.82 294.556 557.881 294.556C560.138 288.886 564.65 286.508 570.626 284.74C565.321 282.118 560.93 280.045 556.662 277.85C555.564 277.301 554.528 276.387 553.735 275.411C552.698 274.009 551.844 272.485 551.174 270.839C550.503 269.314 550.198 267.607 549.771 265.961C548.186 272.973 544.405 277.85 537.697 280.411C534.892 281.447 532.27 282.972 529.221 284.435C531.904 285.898 534.404 286.935 536.539 288.52C538.246 289.8 539.588 291.568 541.173 293.336C541.417 293.641 541.722 293.946 542.027 294.251C532.941 298.945 524.648 303.152 515.745 307.725C517.452 308.091 518.55 308.213 519.525 308.579C520.44 308.883 521.233 309.493 522.087 309.92C521.538 310.713 521.172 311.688 520.44 312.176C518.489 313.517 515.867 314.188 514.403 315.895C511.842 318.943 508.61 320.529 505.073 321.809C498 324.309 497.756 324.309 497.512 316.87C497.39 313.761 495.804 309.493 500.744 307.969C500.988 307.908 501.232 307.298 501.232 306.932C500.866 304.494 502.573 304.311 504.22 304.25C506.537 304.189 508.854 304.25 511.11 304.189C511.598 304.189 512.086 303.762 512.574 303.518C512.269 303.03 512.147 302.421 511.72 302.116C510.988 301.628 510.074 301.323 509.22 301.018C503.976 299.25 498.67 297.543 493.487 295.653C492.694 295.348 491.658 293.214 491.719 293.153C493.67 291.507 493.548 288.093 496.719 287.544C498.488 287.239 500.195 286.691 502.878 286.081C497.573 284.191 493.243 282.423 488.731 281.081C487.023 280.533 485.926 279.74 486.475 278.277C486.475 278.277 486.475 278.277 486.475 278.216C487.267 276.265 487.755 273.765 490.499 273.216C491.719 272.973 492.877 272.485 494.036 272.119C494.036 271.875 494.097 271.692 494.097 271.448C489.767 270.046 485.377 268.644 480.803 267.18C480.255 266.083 479.523 264.498 478.425 262.303C477.389 264.681 476.718 266.266 476.23 267.363C472.022 268.644 468.059 269.863 463.851 271.143C463.546 271.265 463.181 271.326 462.876 271.448C465.315 272.79 467.327 273.46 468.791 274.863C469.888 275.899 470.437 277.728 470.681 279.313C470.742 279.74 468.974 280.594 467.876 281.021C463.546 282.667 459.156 284.252 454.826 285.898C455.375 286.691 455.802 286.874 456.229 286.813C460.68 286.386 463.059 289.251 464.827 292.605C465.193 293.275 464.217 295.47 463.424 295.775C458.058 297.909 452.631 299.677 447.204 301.689C446.35 301.994 445.679 302.604 444.887 303.091C444.948 303.335 445.07 303.64 445.131 303.884C447.387 304.006 449.643 304.25 451.899 304.25C454.339 304.311 459.034 308.152 459.339 310.53C459.4 310.713 459.339 310.956 459.339 311.139C459.339 314.31 459.583 317.48 459.217 320.529C458.973 322.48 458.18 324.674 456.9 326.077C455.558 327.54 453.302 328.089 451.411 329.064C451.168 329.186 450.985 329.491 450.924 329.796C450.253 332.722 448.302 331.503 446.716 331.015C445.862 330.771 445.131 330.04 444.277 329.918C442.448 329.674 442.021 328.577 442.021 326.991C442.021 324.674 442.021 322.358 441.716 320.041C440.984 314.371 439.703 308.701 439.277 302.969C438.85 297.543 439.155 292.056 439.216 286.569C439.277 283.703 439.764 280.777 435.435 279.984C434.764 280.838 433.118 281.935 433.057 283.154C432.264 291.446 433.849 299.738 431.837 308.091C430.557 313.334 430.557 318.882 429.947 324.553C427.934 324.004 426.288 323.638 424.642 323.15C419.885 321.748 419.885 321.748 420.983 316.931C421.044 316.748 420.861 316.566 420.8 316.261C418.361 315.285 415.678 314.554 413.36 313.212C411.226 311.932 409.519 309.981 407.567 308.335C407.262 309.005 406.775 310.042 406.287 311.078C405.982 311.017 405.738 310.895 405.433 310.834C405.921 308.883 405.921 306.567 407.14 305.164C408.421 303.701 410.738 303.213 412.994 302.116C409.397 301.079 406.043 300.287 402.872 299.189C401.835 298.824 401.103 297.543 400.189 296.69C400.433 296.385 400.677 296.08 400.921 295.714C396.164 295.165 391.652 294.373 391.286 287.91C391.896 295.531 385.676 294.251 382.261 296.385C381.895 297.482 381.285 298.58 380.492 298.884C377.078 300.104 373.602 301.018 369.638 302.238C371.468 302.908 372.748 303.335 374.029 303.823C374.638 304.067 375.553 304.311 375.736 304.799C377.2 309.371 378.968 313.822 378.419 318.76C378.358 319.431 377.748 320.407 377.261 320.468C376.529 320.529 375.675 320.041 375.004 319.614C374.212 319.126 373.48 317.968 372.687 317.968C369.333 317.785 365.979 317.907 362.565 317.907C362.26 319.065 362.016 320.041 361.833 320.833C360.369 321.138 358.967 321.077 357.869 321.687C356.162 322.602 354.698 323.943 353.113 325.101C353.052 324.674 352.93 324.309 352.869 323.882C351.71 323.455 350.552 322.723 349.332 322.662C346.527 322.419 343.661 322.419 340.856 322.358C336.648 322.358 336.404 322.602 336.404 326.808C336.404 328.82 336.343 330.406 333.477 330.101C331.16 329.796 328.477 330.832 328.477 326.808C328.477 323.272 328.355 319.736 328.233 316.2C328.111 313.212 327.989 310.225 327.867 307.237C327.684 302.604 327.562 297.909 327.44 293.275C327.318 289.251 327.318 285.166 327.014 281.142C326.953 280.655 326.953 280.167 326.892 279.74C326.526 275.35 327.136 271.022 326.648 266.632C326.16 262.12 326.343 257.547 325.977 253.036C325.855 251.694 324.94 250.414 324.331 249.134C323.721 247.792 322.989 246.512 322.623 245.841C322.013 246.817 321.099 248.219 320.306 249.621C319.818 250.475 319.208 251.389 319.147 252.243C318.781 259.62 318.476 266.998 318.233 274.375C318.111 278.643 317.928 282.85 317.806 287.117C317.501 296.994 317.196 306.871 316.891 316.748C316.83 318.273 316.708 319.736 316.525 321.321C316.403 322.541 316.281 323.821 316.159 325.223C314.452 323.76 311.159 327.235 310.305 323.943C310.122 323.394 310.061 322.602 310.061 321.626C307.317 321.809 304.634 321.992 301.951 322.175C301.463 322.236 300.975 322.236 300.488 322.114C297.317 321.382 296.829 321.748 296.768 325.101C296.768 326.625 296.768 328.15 296.707 329.613C296.707 331.564 296.707 333.454 296.585 335.405C296.585 336.076 295.975 336.685 295.67 337.295C295.243 336.807 294.938 336.259 294.451 335.954C293.78 335.466 293.048 334.856 292.316 334.795C290.731 334.673 289.084 334.856 287.438 334.917L288.17 381.193C287.926 381.254 287.682 381.254 287.438 381.315C232.435 389.363 182.919 398.508 139.99 408.568C129.014 411.129 118.525 413.75 108.464 416.433C108.037 416.555 107.671 416.677 107.244 416.738C107.244 416.738 107.244 416.738 107.183 416.738C100.597 418.506 94.2554 420.274 88.0965 422.103C85.4744 422.896 82.8523 423.628 80.2302 424.42C76.9373 425.457 73.6444 426.432 70.4125 427.469C62.912 429.907 55.7774 432.346 48.9478 434.785C55.9604 433.383 63.1559 432.041 70.4125 430.7C92.9139 426.554 116.635 422.53 141.392 418.75C186.639 411.799 235.423 405.52 287.377 399.91L288.353 399.789C288.658 399.728 288.901 399.728 289.206 399.667C457.265 381.681 657.522 371.255 872.474 371.255C1087.43 371.255 1287.68 381.681 1455.74 399.667C1519.53 406.495 1578.68 414.421 1632.22 423.262C1639.72 424.481 1647.16 425.761 1654.41 427.042C1668.74 429.542 1682.58 432.102 1696 434.785C1683.32 430.334 1669.41 425.822 1654.41 421.494ZM1301.77 291.08C1302.81 291.995 1303.84 292.788 1304.63 293.702C1307.07 296.446 1307.07 297.421 1304.57 300.104C1301.1 303.762 1297.5 307.359 1293.9 310.895C1293.23 311.566 1292.19 311.81 1291.34 312.298C1291.22 312.115 1291.1 311.932 1290.98 311.749C1294.51 304.92 1298.05 298.153 1301.77 291.08ZM1275.85 286.264C1280.24 286.203 1284.63 285.959 1288.9 286.63C1292.56 287.178 1296.1 288.886 1300.18 290.227C1297.19 295.653 1294.69 300.348 1292.01 304.92C1291.52 305.713 1290.18 305.957 1289.15 306.567C1288.66 303.518 1288.35 301.018 1287.74 298.58C1287.56 297.787 1286.52 297.177 1285.85 296.446C1285.12 297.238 1284.02 297.848 1283.78 298.763C1283.29 300.47 1283.41 302.36 1283.11 304.128C1282.99 304.799 1282.5 305.469 1282.19 306.079C1281.46 305.652 1280.43 305.469 1280.12 304.859C1277.8 300.043 1275.55 295.165 1273.41 290.227C1272.5 288.093 1273.54 286.325 1275.85 286.264ZM1267.62 289.312C1269.63 288.093 1270.43 289.556 1271.22 291.141C1273.9 296.568 1276.65 301.933 1279.33 307.42C1280 308.762 1280.36 310.164 1280.91 311.566C1280.55 311.871 1280.18 312.176 1279.82 312.481C1276.71 309.31 1273.29 306.323 1270.49 302.847C1268.41 300.287 1267.32 297.055 1265.67 294.129C1264.21 291.629 1265.91 290.41 1267.62 289.312ZM1262.92 295.531C1267.86 302.116 1271.71 309.371 1278.78 313.456C1277.62 315.712 1276.58 317.602 1275.43 319.797C1271.28 315.102 1266.64 310.895 1263.35 305.774C1261.71 303.213 1262.68 299.067 1262.92 295.531ZM1178.22 205.419C1193.71 224.807 1209.38 244.134 1224.81 263.522C1225.79 264.803 1226.34 266.693 1226.46 268.4C1226.46 268.522 1226.46 268.583 1226.46 268.705C1226.58 271.936 1226.22 275.167 1225.97 278.399C1225.79 280.899 1227.07 282.179 1229.33 282.667C1231.4 283.093 1233.53 283.337 1235.61 283.886C1239.57 284.862 1242.25 287.178 1243.35 291.202C1243.66 292.239 1244.08 293.58 1244.87 294.007C1247.62 295.409 1247.5 297.726 1247.5 300.165C1247.44 304.006 1247.44 307.908 1247.44 311.749C1247.44 313.822 1247.44 315.895 1247.44 317.968C1247.13 318.029 1246.83 318.09 1246.58 318.151C1244.51 315.407 1242.5 312.664 1240.48 309.92C1230.97 296.933 1221.95 283.642 1213.23 270.107C1195.3 242.427 1178.71 213.893 1162.49 185.055C1167.74 191.884 1172.92 198.712 1178.22 205.419ZM1155.97 176.397C1159.08 182.86 1162.25 189.262 1165.3 195.725C1175.91 218.649 1187.31 241.086 1200.24 262.73C1206.82 273.765 1213.78 284.557 1221.15 295.165C1221.34 295.409 1221.4 295.714 1221.58 296.019C1217.62 293.763 1207.07 283.703 1204.32 279.496C1194.32 264.132 1185.24 248.341 1177.13 232.123C1168.89 215.601 1161.64 198.59 1155.54 181.031C1155.05 179.69 1155.05 178.165 1154.81 176.763C1155.17 176.641 1155.6 176.519 1155.97 176.397ZM1115.6 250.475C1116.45 251.816 1116.09 253.95 1116.33 255.962C1119.93 256.45 1117.98 259.559 1118.34 261.693C1118.71 263.888 1117 263.949 1115.54 264.437C1108.71 266.571 1101.94 268.827 1095.23 270.961C1101.39 260.413 1107.79 249.499 1114.14 238.647C1114.32 238.708 1114.5 238.708 1114.62 238.708C1114.56 239.805 1114.5 240.903 1114.5 242C1114.5 244.866 1113.89 247.67 1115.6 250.475ZM1116.03 234.379C1117.79 230.599 1119.44 227.124 1121.09 223.648C1121.51 223.831 1121.94 223.953 1122.37 224.075C1121.64 225.6 1120.6 227.002 1120.17 228.587C1119.75 230.416 1119.87 232.306 1119.68 234.379H1116.03ZM1123.1 250.353C1123.1 250.109 1123.16 249.865 1123.16 249.621C1125.17 249.012 1127.18 248.402 1129.38 247.731C1129.62 249.682 1129.81 251.085 1130.05 253.097C1127.55 252.06 1125.36 251.207 1123.1 250.353ZM1157.13 253.158C1157.37 251.146 1157.55 249.804 1157.8 247.792C1159.93 248.402 1162 249.012 1164.02 249.621C1164.02 249.865 1164.02 250.109 1164.02 250.353C1161.82 251.207 1159.69 252.06 1157.13 253.158ZM1174.75 230.233C1183.41 247.792 1192.98 264.803 1203.47 281.386C1200.12 279.009 1196.94 276.082 1193.29 274.314C1187.43 271.387 1181.21 269.253 1175.18 266.754C1172.86 265.778 1170.6 264.681 1168.16 263.522V257.547C1169.93 257.06 1171.58 256.633 1173.35 256.145C1173.1 255.048 1172.86 254.316 1172.74 253.584C1172.19 251.207 1171.64 249.012 1173.41 246.695C1174.2 245.658 1174.14 243.768 1173.96 242.366C1173.65 240.11 1172.98 237.915 1172.37 235.355C1171.46 235.233 1170.11 235.111 1168.71 234.989C1168.16 231.635 1168.1 228.221 1167.19 225.173C1167.07 224.807 1166.94 224.441 1166.82 224.075C1165.24 219.929 1165.85 215.235 1162.8 211.455C1161.52 209.869 1161.64 207.248 1161.03 205.175C1160.11 202.065 1159.14 198.895 1158.1 195.786C1156.7 191.457 1155.24 187.128 1154.2 182.616C1160.24 198.834 1167.07 214.747 1174.75 230.233ZM1152 249.195C1152.61 249.987 1153.16 250.78 1153.77 251.572C1154.5 250.658 1155.24 249.743 1155.91 248.89C1156.15 248.951 1156.39 248.951 1156.58 249.012C1156.21 250.231 1156.09 251.694 1155.3 252.609C1154.87 253.097 1152.98 253.158 1152.43 252.67C1151.64 251.938 1151.39 250.597 1150.97 249.499C1151.33 249.317 1151.7 249.256 1152 249.195ZM1150.05 248.524C1150.36 250.353 1150.54 251.45 1150.72 252.67C1149.2 252.365 1147.73 252.06 1146.33 251.816C1146.15 251.572 1146.03 251.329 1145.84 251.085C1147.06 250.292 1148.41 249.499 1150.05 248.524ZM1135.29 251.877C1134.56 252.548 1132.73 253.158 1132.37 252.792C1131.39 251.877 1131.03 250.414 1130.36 249.195C1130.66 249.134 1131.03 249.012 1131.33 248.951C1132 249.804 1132.61 250.658 1133.28 251.511C1133.89 250.78 1134.5 249.987 1135.11 249.256C1135.36 249.256 1135.6 249.195 1135.78 249.195C1135.66 250.109 1135.84 251.389 1135.29 251.877ZM1044.8 281.63C1064.13 261.937 1082.3 241.086 1099.68 219.625C1111.57 204.931 1123.1 189.993 1134.5 174.812C1136.15 176.519 1136.21 176.519 1134.75 178.409C1128.53 186.579 1122.37 194.749 1116.03 202.797C1112.43 207.431 1108.77 212.064 1105.11 216.637C1087.06 239.379 1068.64 261.815 1049.37 283.52C1042 291.873 1034.5 300.104 1026.87 308.213C1024.98 310.225 1023.09 312.176 1021.14 314.066C1019.43 315.712 1017.67 317.297 1015.71 319.126C1015.35 317.968 1014.98 316.87 1014.37 314.919C1013.64 317.907 1013.09 320.041 1012.42 322.723C1011.14 319.98 1010.1 317.846 1009.01 315.468C1021.39 304.616 1033.28 293.336 1044.8 281.63ZM1008.58 315.834C1008.58 318.395 1008.64 320.285 1008.52 322.114C1008.46 322.662 1007.91 323.455 1007.36 323.638C1002.91 325.345 998.396 326.991 993.945 328.637C993.823 328.394 993.701 328.089 993.579 327.845C998.396 324.004 1003.21 320.163 1008.58 315.834ZM997.177 337.417C993.884 335.954 990.53 334.491 986.749 332.844C988.213 331.747 989.31 330.893 990.286 330.162C991.932 331.137 993.579 331.869 994.92 332.966C996.079 333.881 996.994 335.161 998.03 336.259C997.786 336.685 997.482 337.051 997.177 337.417ZM1006.14 341.014C1004.98 336.929 1008.15 335.954 1010.35 334.308C1013.28 332.174 1016.08 332.235 1019.25 334.734C1014.98 337.295 1012.18 342.173 1006.14 341.014ZM1023.7 340.953H1012.97C1015.65 338.88 1017.67 336.99 1020.04 335.771C1020.78 335.405 1022.67 336.685 1023.58 337.6C1024.13 338.21 1023.7 339.612 1023.7 340.953ZM1022.85 324.431C1020.59 323.577 1019.07 322.419 1019.31 319.919C1019.43 318.76 1019.74 317.297 1020.47 316.505C1030.78 305.896 1040.78 295.043 1050.59 284.008C1070.23 261.815 1088.95 238.891 1107.43 215.662C1107.61 215.418 1107.79 215.174 1107.98 214.93C1116.64 204.016 1124.99 192.981 1133.53 182.007C1133.89 181.519 1134.32 181.092 1134.69 180.665C1134.87 180.787 1134.99 180.909 1135.17 181.031C1132.86 185.421 1130.6 189.811 1128.22 194.078C1124.81 200.358 1121.27 206.516 1117.73 212.674C1102.24 239.318 1085.17 264.925 1065.41 288.642C1063.52 290.898 1061.63 293.153 1059.68 295.348C1051.45 304.799 1042.12 313.334 1033.64 322.602C1030.29 326.382 1026.93 326.016 1022.85 324.431ZM1063.22 297.665C1056.94 304.128 1052 311.566 1048.52 319.858C1046.45 324.796 1044.07 328.82 1037.91 328.516C1037.54 334.551 1036.45 335.588 1030.72 334.795C1033.15 333.149 1034.86 331.93 1037.3 330.284C1035.9 328.881 1034.25 327.296 1032.36 325.467C1044.68 314.31 1056.08 302.055 1066.82 289.068C1074.25 280.045 1081.33 270.717 1088.1 261.145C1099.26 245.414 1109.62 229.136 1119.32 212.491C1123.95 204.504 1128.47 196.395 1132.79 188.225C1133.04 188.347 1133.28 188.469 1133.53 188.591C1131.09 195.176 1128.83 201.882 1126.21 208.406C1125.72 209.626 1125.23 210.845 1124.75 212.064C1116.21 232.916 1105.66 252.792 1093.04 271.57C1092.3 272.668 1091.39 273.643 1090.35 274.375C1083.46 279.13 1077.06 284.435 1071.02 290.105C1068.34 292.483 1065.72 295.043 1063.22 297.665ZM1201.95 263.217C1190.12 243.22 1179.57 222.49 1169.75 201.334C1175.05 210.296 1180.36 219.259 1185.72 228.16C1194.26 242.305 1202.92 256.389 1211.88 270.29C1220.48 283.581 1229.39 296.69 1238.72 309.493C1240.24 311.566 1241.76 313.639 1243.35 315.712C1245.61 318.76 1248.78 321.382 1247.19 326.443C1241.95 320.407 1236.89 314.249 1232.07 307.969C1221.03 293.58 1211.09 278.643 1201.95 263.217ZM1236.52 316.017C1240.12 321.26 1246.16 324.796 1248.47 331.991C1239.87 329.125 1239.63 321.565 1236.52 316.017ZM1282.93 341.014C1278.05 341.014 1273.17 341.075 1268.35 341.014C1265.79 341.014 1262.62 338.027 1262.62 335.405C1262.56 329.308 1262.62 323.272 1262.62 317.175C1262.62 314.432 1262.62 311.749 1262.62 309.005C1262.62 308.762 1262.8 308.518 1263.05 307.725C1267.5 312.785 1271.83 317.541 1275.97 322.419C1276.4 322.967 1276.58 323.821 1276.46 324.796C1276.28 326.747 1275.12 329.186 1273.72 330.284C1272.68 331.076 1271.46 331.625 1270.36 332.357C1267.86 333.942 1267.74 336.198 1270.55 337.295C1273.41 338.393 1276.58 338.758 1279.63 339.307C1281.4 339.612 1283.23 339.551 1285 339.673C1285 340.039 1285 340.344 1285 340.709C1284.33 340.831 1283.66 341.014 1282.93 341.014ZM1287.19 340.831C1287.13 340.587 1287.07 340.344 1287.01 340.1C1287.99 339.795 1288.96 339.429 1290 339.307C1291.34 339.124 1292.68 339.002 1294.02 338.88C1295.79 338.697 1297.62 338.514 1299.33 338.149C1300.61 337.905 1302.01 336.624 1302.5 335.466C1302.74 334.917 1301.22 333.088 1300.18 332.54C1295.79 330.406 1295.98 326.199 1295.37 322.419C1295 320.346 1294.76 318.212 1294.57 316.139C1294.51 315.163 1294.51 313.822 1295.06 313.212C1299.7 308.274 1304.45 303.457 1309.15 298.58C1309.39 298.763 1309.63 298.945 1309.88 299.189V340.953H1287.19V340.831Z" fill="#327D3A"/>
<defs>
<filter id="filter0_d" x="0.351517" y="0.00488281" width="1684.5" height="470.878" filterUnits="userSpaceOnUse" color-interpolation-filters="sRGB">
<feFlood flood-opacity="0" result="BackgroundImageFix"/>
<feColorMatrix in="SourceAlpha" type="matrix" values="0 0 0 0 0 0 0 0 0 0 0 0 0 0 0 0 0 0 127 0"/>
<feOffset dy="-30"/>
<feGaussianBlur stdDeviation="35"/>
<feColorMatrix type="matrix" values="0 0 0 0 0.113725 0 0 0 0 0.631373 0 0 0 0 0.952941 0 0 0 0.1 0"/>
<feBlend mode="normal" in2="BackgroundImageFix" result="effect1_dropShadow"/>
<feBlend mode="normal" in="SourceGraphic" in2="effect1_dropShadow" result="shape"/>
</filter>
</defs>
</svg>
