<svg width="160" height="64" viewBox="0 0 160 64" fill="none" xmlns="http://www.w3.org/2000/svg">
<path d="M159.132 25.3136V33.0527C159.132 36.8382 158.083 39.9256 155.986 42.3069C154.603 43.885 152.857 44.9309 150.756 45.4607C150.472 45.5935 150.155 45.669 149.817 45.669H149.779C149.719 45.6782 149.599 45.6598 149.599 45.6598C148.472 45.55 147.588 44.6002 147.588 43.4467C147.588 42.2944 148.471 41.3434 149.599 41.237V41.2256C151.668 41.2256 153.35 39.5514 153.35 37.4859V30.1232C153.35 28.0554 151.668 26.387 149.599 26.387H144.762C142.694 26.387 141.011 28.0554 141.011 30.1232V37.4859C141.011 39.5514 142.69 41.2256 144.762 41.2256C144.777 41.2256 144.789 41.229 144.802 41.2347C144.855 41.229 144.91 41.2256 144.965 41.2256C146.206 41.2256 147.212 42.228 147.212 43.465C147.212 44.702 146.206 45.7045 144.965 45.7045C144.95 45.7045 144.937 45.701 144.922 45.701V45.7045C144.916 45.701 144.91 45.701 144.905 45.701C144.652 45.6919 144.408 45.6427 144.181 45.5591C141.855 45.0614 139.905 43.9433 138.348 42.2085C136.259 39.8913 135.21 36.8382 135.21 33.0527V25.3136C135.21 21.5224 136.294 18.4293 138.472 16.0273C138.728 15.7458 138.996 15.4803 139.271 15.2331C140.791 17.8457 143.629 19.6011 146.874 19.6011C150.297 19.6011 153.263 17.6523 154.709 14.804C155.154 15.1633 155.572 15.5627 155.964 16.0056C158.077 18.3892 159.132 21.4881 159.132 25.3136Z" fill="#1DA1F2"/>
<path d="M151.637 15.9186C150.118 17.3627 147.986 18.1363 145.745 17.8502C142.408 17.4245 139.899 14.788 139.505 11.6045C139.695 11.6811 139.917 11.6571 140.123 11.4671C140.585 11.0357 141.017 10.5711 141.438 10.0985C142.321 9.10981 142.903 7.95289 143.7 6.9207C144.135 6.35769 145.172 6.45152 146.159 6.709C146.354 6.76049 146.549 6.82 146.735 6.87836C146.743 6.88179 146.749 6.88294 146.755 6.88637C146.941 6.94473 147.118 7.00538 147.279 7.06717C147.287 7.07061 147.297 7.07175 147.305 7.07633C147.466 7.13812 147.617 7.19534 147.748 7.25027C147.757 7.25141 147.761 7.25484 147.77 7.25942C147.898 7.31092 148.014 7.36127 148.104 7.39789C148.962 7.76178 149.751 8.25385 150.455 8.86034C150.738 9.10409 151.725 10.1935 151.531 10.5391C151.193 11.1387 150.96 11.7887 150.851 12.4524C150.706 13.3358 150.779 14.2444 151.12 15.0821C151.205 15.2915 151.307 15.4941 151.425 15.6932C151.485 15.7973 151.557 15.8705 151.637 15.9186Z" fill="#1DA1F2"/>
<path d="M152.532 14.8773C152.53 14.8681 152.525 14.8612 152.52 14.8521C151.402 12.9742 153.332 11.4111 152.659 9.55266C152.033 7.82243 150.008 6.70899 148.422 6.03269C148.249 5.95831 148.068 5.8885 147.884 5.81755C147.818 5.79123 147.744 5.7672 147.674 5.74432C147.557 5.69969 147.437 5.65849 147.313 5.61958C147.225 5.59098 147.135 5.56809 147.044 5.54177C146.934 5.50973 146.824 5.47883 146.714 5.45022C146.617 5.42619 146.521 5.40559 146.423 5.38156C146.375 5.37241 146.329 5.36096 146.284 5.34952C146.284 5.35295 146.283 5.35524 146.283 5.35524C145.258 5.15155 144.194 5.1321 143.298 5.54635C142.363 5.97891 141.981 7.13354 141.42 7.91741C140.873 8.67953 140.255 9.41534 139.583 10.0802C139.39 7.70227 140.388 5.55207 140.388 5.55207C140.515 5.28544 140.658 5.02911 140.806 4.78193C140.857 4.69496 140.918 4.61257 140.973 4.52903C141.075 4.37226 141.175 4.2132 141.282 4.06672C141.353 3.9706 141.429 3.88134 141.502 3.78865C141.607 3.65934 141.706 3.52545 141.812 3.40186C141.897 3.30803 141.984 3.2222 142.073 3.1318C142.178 3.01966 142.284 2.90408 142.394 2.7988C142.488 2.70611 142.589 2.62257 142.689 2.5356C142.798 2.44177 142.905 2.34107 143.015 2.25295C143.123 2.16484 143.236 2.08817 143.346 2.00578C143.456 1.92682 143.563 1.84328 143.678 1.76775C143.793 1.6888 143.913 1.62014 144.033 1.54804C144.145 1.48053 144.256 1.40958 144.37 1.3455C144.496 1.27684 144.623 1.21733 144.752 1.15439C144.864 1.09832 144.975 1.03996 145.089 0.989607C145.223 0.930102 145.361 0.880895 145.497 0.828256C145.608 0.78706 145.72 0.740142 145.832 0.701235C145.973 0.655462 146.116 0.614266 146.258 0.574214C146.37 0.544461 146.481 0.508987 146.592 0.482667C146.736 0.448337 146.883 0.423162 147.034 0.395698C147.142 0.373955 147.253 0.353357 147.363 0.338481C147.516 0.316739 147.664 0.304151 147.814 0.291563C147.923 0.282409 148.034 0.273254 148.143 0.266388C148.295 0.262955 148.448 0.264099 148.599 0.266388C148.707 0.265244 148.816 0.267532 148.927 0.273254C149.078 0.281264 149.227 0.299574 149.381 0.316739C149.488 0.330471 149.598 0.341914 149.707 0.357935C149.856 0.38311 150.004 0.414007 150.156 0.447193C150.264 0.472368 150.369 0.495255 150.477 0.522719C150.624 0.565059 150.771 0.609688 150.917 0.660039C150.985 0.682926 151.052 0.697802 151.12 0.724122C151.114 0.722977 151.109 0.725266 151.105 0.727555C151.206 0.764173 151.311 0.791637 151.41 0.836266C154.652 2.19345 156.333 5.60242 155.827 9.13841C155.753 12.0347 153.582 14.0625 152.532 14.8773Z" fill="#FFE135"/>
<path d="M29.7277 16.2287H27.0796C25.6839 16.2287 24.4167 16.7929 23.503 17.7084C22.5847 18.6204 22.0234 19.8826 22.0234 21.2741C20.0216 20.3117 17.8224 19.8242 15.4131 19.8242C11.1535 19.8242 7.52517 21.3256 4.51326 24.3272C1.62302 27.2052 -0.00689577 31.1222 -8.78094e-06 35.2006C-8.78094e-06 39.4404 1.5025 43.0645 4.50982 46.0638C7.52173 49.0665 11.1535 50.5633 15.4131 50.5633C17.7925 50.5633 19.9929 50.0804 22.0234 49.1169C21.9614 51.0211 21.2486 52.6495 19.8862 54.0124C18.5202 55.3707 16.8524 56.055 14.8885 56.055V63.7358C18.9645 63.7358 22.4573 62.2928 25.3694 59.4113C28.278 56.5265 29.7288 53.0374 29.7288 48.9407V39.81C27.9221 37.1369 26.8719 33.9156 26.8719 30.4482C26.8719 26.9809 27.9221 23.7596 29.7288 21.0864V16.2287H29.7277ZM22.0234 39.1475C21.6963 39.675 21.3152 40.1579 20.8744 40.5973C19.3467 42.117 17.5285 42.8826 15.4131 42.8826C13.2689 42.8826 11.4508 42.125 9.95169 40.6202C8.45377 39.1085 7.70423 37.3028 7.70423 35.1938C7.70423 33.0562 8.45377 31.2435 9.95169 29.749C11.4496 28.2557 13.2678 27.5084 15.4131 27.5084C17.5285 27.5084 19.3467 28.2557 20.8744 29.749C21.3152 30.1885 21.6974 30.6714 22.0234 31.1955V39.1475Z" fill="#1DA1F2"/>
<path d="M83.7125 16.2287H81.0644C79.6687 16.2287 78.4015 16.7929 77.4878 17.7084C76.573 18.6204 76.0082 19.8826 76.0082 21.2741C74.0064 20.3117 71.8072 19.8242 69.3979 19.8242C65.1383 19.8242 61.51 21.3256 58.498 24.3272C55.6112 27.2052 53.9767 31.1222 53.9848 35.2006C53.9848 39.4404 55.4873 43.0645 58.4946 46.0638C61.5065 49.0665 65.1383 50.5633 69.3979 50.5633C71.7773 50.5633 73.9777 50.0804 76.0082 49.1169C75.9462 51.0211 75.2334 52.6495 73.871 54.0124C72.505 55.3707 70.8372 56.055 68.8733 56.055V63.7358C72.9493 63.7358 76.4456 62.2928 79.3542 59.4113C82.2628 56.5265 83.7136 53.0374 83.7136 48.9407V40.333C81.6866 37.5614 80.4894 34.1421 80.4894 30.4482C80.4894 26.7543 81.6866 23.3339 83.7136 20.5635V16.2287H83.7125ZM76.0082 39.1475C75.6811 39.675 75.3 40.1579 74.8592 40.5973C73.3315 42.117 71.5133 42.8826 69.3979 42.8826C67.2537 42.8826 65.4355 42.125 63.9365 40.6202C62.4386 39.1085 61.689 37.3028 61.689 35.1938C61.689 33.0562 62.4386 31.2435 63.9365 29.749C65.4344 28.2557 67.2526 27.5084 69.3979 27.5084C71.5133 27.5084 73.3315 28.2557 74.8592 29.749C75.3 30.1885 75.6822 30.6714 76.0082 31.1955V39.1475Z" fill="#1DA1F2"/>
<path d="M108.239 19.5679C108.177 19.5061 108.114 19.4454 108.052 19.3836C108.05 19.4374 108.05 19.4946 108.05 19.5507V21.3038H109.761C109.306 20.7042 108.798 20.1252 108.239 19.5679ZM110.602 22.5317H106.818V19.5507C106.818 19.141 106.833 18.7359 106.865 18.3354C104.144 16.1566 100.968 15.0672 97.3372 15.0672C93.0811 15.0672 89.447 16.5674 86.4374 19.569C83.4278 22.5695 81.9219 26.1924 81.9219 30.4379C81.9219 34.6811 83.4267 38.3041 86.4374 41.3045C89.447 44.305 93.0811 45.8063 97.3372 45.8063C101.473 45.8063 105.017 44.3919 107.976 41.5631V38.518L108.338 38.1599L112.326 34.1845C112.611 32.9955 112.754 31.7459 112.754 30.439C112.754 27.5038 112.038 24.8696 110.602 22.5317ZM102.778 35.8586C101.265 37.3668 99.4527 38.1198 97.3361 38.1198C95.1931 38.1198 93.3726 37.3657 91.8747 35.8586C90.3768 34.3504 89.6284 32.5435 89.6284 30.4368C89.6284 28.298 90.3768 26.4831 91.8747 24.9897C93.3726 23.4964 95.1931 22.7503 97.3361 22.7503C99.4515 22.7503 101.265 23.4964 102.778 24.9897C104.291 26.4831 105.046 28.298 105.046 30.4368C105.047 32.5435 104.291 34.3504 102.778 35.8586ZM109.207 40.2574C110.114 39.1886 110.847 38.0477 111.406 36.8336L109.207 39.0261V40.2574Z" fill="#FFE135"/>
<path d="M122.262 37.4573H134.667V45.5317H109.207V39.0261L111.406 36.8336L125.178 23.1039C126.104 22.1186 126.567 20.9354 126.567 19.5507C126.567 18.1363 126.057 16.921 125.039 15.9037C124.02 14.8898 122.8 14.3806 121.381 14.3806C119.93 14.3806 118.696 14.8887 117.676 15.9037C116.659 16.9199 116.148 18.1363 116.148 19.5507V21.3038H108.047V19.5507C108.047 19.4946 108.047 19.4374 108.049 19.3836C108.086 15.7939 109.384 12.7259 111.935 10.182C114.529 7.59814 117.675 6.30389 121.38 6.30389C125.053 6.30389 128.183 7.59814 130.777 10.182C133.369 12.766 134.664 15.8888 134.664 19.5507C134.664 23.1828 133.415 26.2748 130.915 28.8255L122.262 37.4573Z" fill="#1DA1F2"/>
<path d="M100.395 36.2443C101.253 36.2443 101.948 35.5511 101.948 34.696C101.948 33.8409 101.253 33.1477 100.395 33.1477C99.5373 33.1477 98.842 33.8409 98.842 34.696C98.842 35.5511 99.5373 36.2443 100.395 36.2443Z" fill="#FFE135"/>
<path d="M150.94 27.1251C151.862 27.1251 152.611 27.8723 152.611 28.7912V38.8465C152.611 39.7654 151.862 40.5126 150.94 40.5126H143.423C142.501 40.5126 141.751 39.7654 141.751 38.8465V28.7912C141.751 27.8723 142.501 27.1251 143.423 27.1251H150.94ZM150.94 26.3893H143.423C142.091 26.3893 141.012 27.4649 141.012 28.7924V38.8476C141.012 40.1751 142.091 41.2507 143.423 41.2507H150.94C152.271 41.2507 153.35 40.1751 153.35 38.8476V28.7924C153.35 27.4649 152.271 26.3893 150.94 26.3893Z" fill="#FFE135"/>
<path d="M57.4547 23.3568C56.7384 21.9985 55.7949 20.7351 54.623 19.5679C51.6122 16.5652 47.9793 15.0649 43.7197 15.0649C39.4636 15.0649 35.8284 16.5663 32.8199 19.5679C29.808 22.5661 28.3032 26.1913 28.3032 30.4345C28.3032 34.6811 29.8092 38.3029 32.8199 41.3045C35.8273 44.3073 39.4636 45.8041 43.7197 45.8041C47.6752 45.8041 51.09 44.5121 53.9699 41.9236C53.0631 39.8627 52.5592 37.5889 52.5592 35.1938C52.5592 30.5764 54.4324 26.3927 57.4547 23.3568ZM49.1593 35.8598C47.6465 37.368 45.8363 38.1187 43.7209 38.1187C41.5767 38.1187 39.7586 37.368 38.2595 35.8598C36.7616 34.3516 36.0121 32.5424 36.0121 30.4334C36.0121 28.2992 36.7616 26.4831 38.2595 24.9886C39.7574 23.4953 41.5756 22.748 43.7209 22.748C45.8363 22.748 47.6465 23.4953 49.1593 24.9886C50.6722 26.482 51.4286 28.298 51.4286 30.4334C51.4286 32.5435 50.6722 34.3516 49.1593 35.8598Z" fill="#FFE135"/>
<path d="M46.7776 36.2443C47.6353 36.2443 48.3306 35.5511 48.3306 34.696C48.3306 33.8409 47.6353 33.1477 46.7776 33.1477C45.9199 33.1477 45.2245 33.8409 45.2245 34.696C45.2245 35.5511 45.9199 36.2443 46.7776 36.2443Z" fill="#FFE135"/>
</svg>
